<?xml version="1.0" encoding="UTF-8"?>
<svg id="Layer_1" data-name="Layer 1" xmlns="http://www.w3.org/2000/svg" version="1.1" viewBox="0 0 776 229.3">
  <defs>
    <style>
      .cls-1 {
        fill: #0057b8;
        stroke-width: 0px;
      }
    </style>
  </defs>
  <path class="cls-1" d="M128,10.5c-1.5,3.7-40.3,105.1-41.7,107.9-1.2,2.9-2.2,4.2-5.2,4.2h-28.3c-3,0-4-1.4-5.4-4.2C46.1,115.6,7.4,14.6,5.9,10.5c-1.4-3.7.2-5.9,3-5.9h27.5c4.9,0,5.7,1.7,7.4,6.1,1.2,2.9,13.2,38.6,23.1,68.5,10-29.8,21.8-65.6,22.9-68.5,1.9-4.4,2.5-6.1,7.6-6.1h27.5c2.7,0,4.4,2.2,3,5.9"/>
  <path class="cls-1" d="M226.3,97.9v20.6c0,2.4-1.9,4.2-4.2,4.2h-77.6c-2.4,0-4.2-1.9-4.2-4.2V8.8c0-2.4,1.9-4.2,4.2-4.2h77.1c2.2,0,4.2,1.9,4.2,4.2v20.6c0,2.4-2,4.2-4.2,4.2h-46.5v15.5h37.8c2.2,0,4.2,1.9,4.2,4.2v20.6c0,2.4-2,4.2-4.2,4.2h-37.8v15.5h47c2.4,0,4.2,1.9,4.2,4.2"/>
  <path class="cls-1" d="M328.5,97.9v20.6c0,2.4-1.9,4.2-4.2,4.2h-81.8c-2.4,0-4.2-1.9-4.2-4.2V8.8c0-2.4,1.8-4.2,4.2-4.2h26.5c2.2,0,4,1.9,4,4.2v84.8h51.3c2.4,0,4.2,1.9,4.2,4.2"/>
  <path class="cls-1" d="M427.2,97.9v20.6c0,2.4-1.9,4.2-4.2,4.2h-77.6c-2.4,0-4.2-1.9-4.2-4.2V8.8c0-2.4,1.9-4.2,4.2-4.2h77.1c2.2,0,4.2,1.9,4.2,4.2v20.6c0,2.4-2,4.2-4.2,4.2h-46.5v15.5h37.8c2.2,0,4.2,1.9,4.2,4.2v20.6c0,2.4-2,4.2-4.2,4.2h-37.8v15.5h47c2.4,0,4.2,1.9,4.2,4.2"/>
  <path class="cls-1" d="M519.1,99.1c-3.5,13.8-16.4,25.6-44.7,25.6s-29.2-6.7-33.4-9.4c-1.5-1-2-2.4-1.3-4.9.5-2.4,4.7-17.9,5.1-19.1.3-1,2-2.4,3.9-1.5,6.4,2.9,14,6.4,20.2,6.9,7.9.3,14.2-1.9,14.3-6.7,0-4.9-4.7-7.2-18.4-16.7-14.3-9.8-27-23.3-24.5-43.5,3-25.1,28.3-27.1,41.8-27.1s23.8,3,29.5,5.1c2.5.7,3.9,2.5,3.4,4.9-.3,2-3.4,17.5-3.7,19.6-.5,2-1.7,3.7-4.9,2.5-5.6-2-12.7-4.6-20.9-4.6s-6.9,1.4-7.8,3.5c-2.2,5.7,3.9,10.3,22.3,23.4,18.4,13,22.8,27.5,19.1,42"/>
  <path class="cls-1" d="M635.1,8.8v20.6c0,2.4-1.9,4.2-4.2,4.2h-29.5v84.8c0,2.4-1.9,4.2-4.2,4.2h-26.3c-2.4,0-4.2-1.9-4.2-4.2V33.6h-29.5c-2.4,0-4.2-1.9-4.2-4.2V8.8c0-2.2,1.9-4.2,4.2-4.2h93.8c2.4,0,4.2,2,4.2,4.2"/>
  <path class="cls-1" d="M487.8,185.6c1.7,5.1,6.6,6.5,9.8,6.6,5.2.2,8.2-.8,11.3-2.2,1.1-.4,2.3-.4,3,.9.3.8,2,5.3,2.4,6.3.5,1.4,0,2.3-.8,2.8-4.9,3.1-11.8,4.1-17.7,4.1-15.9,0-24.7-10.6-24.7-23.7s8.7-23.6,24-23.6,21.2,10.5,21.2,23.6-.4,5.3-5,5.3h-23.5ZM487.5,177.1h13.7c0-5.2-2-8.7-6-8.7s-7.6,3.4-7.6,8.7"/>
  <path class="cls-1" d="M522.3,201v-40.9c0-1.2.9-2.1,2.1-2.1h12.5c1.2,0,2.1.9,2.1,2.1v2.1c1.9-2.7,7.9-5.4,13-5.4,11.3,0,15.9,5.9,15.9,16.3v27.9c0,1.1-.9,2-2.1,2h-12.5c-1.2,0-2.1-.9-2.1-2v-25c0-4.7-3.8-5.9-6-5.9s-6.1,1.2-6.1,5.9v25c0,1.1-.9,2-2.1,2h-12.5c-1.2,0-2.1-.9-2.1-2"/>
  <path class="cls-1" d="M590.2,185.6c1.7,5.1,6.6,6.5,9.9,6.6,5.2.2,8.2-.8,11.3-2.2,1.1-.4,2.3-.4,3,.9.3.8,2,5.3,2.4,6.3.5,1.4,0,2.3-.8,2.8-4.9,3.1-11.8,4.1-17.7,4.1-15.9,0-24.7-10.6-24.7-23.7s8.7-23.6,24-23.6,21.2,10.5,21.2,23.6-.4,5.3-5,5.3h-23.5ZM589.9,177.1h13.7c0-5.2-2-8.7-6-8.7s-7.6,3.4-7.6,8.7"/>
  <path class="cls-1" d="M662,160.8c-.2,1.5-.9,10-1.1,11.4-.3,1.9-1.4,2.9-3.1,2.4-1.8-.6-4.8-1.4-8.1-1.4-3.1,0-8.1,1.4-8.1,8.7v19.1h0c0,0,0,0,0,0,0,1.1-.9,2-2,2h-12.6c-1.1,0-2.1-.9-2.1-2v-40.9c0-1.2,1-2.1,2.1-2.1h12.6c1.1,0,2,.9,2,2.1v2.1c1.4-2,7.1-5.4,13-5.4s5.6.6,6.7,1c1,.5.9,1.9.8,3"/>
  <path class="cls-1" d="M718.7,160.1v37.4c0,13.5-4.2,21.8-16.2,25.5-3.9,1.2-10.2,1.8-14.8,1.4-5.9-.5-12.2-2.6-17.1-5.8-.8-.5-1.4-1.4-.8-2.8.4-.9,2.9-6.6,3.2-7.5.7-1.3,1.9-1.4,3-.8,4,1.9,7.2,3.8,11.3,4.1,9.6.6,14.3-3.1,14.6-7.7.2-2.3.2-3.7.2-3.7-1.6,1-3.4,2-5.2,2.6-2.3.9-4.8,1.3-7.4,1.3s-5.1-.4-7.3-1.3c-3.4-1.3-6.4-3.4-8.7-6.2-3.6-4.2-5.7-9.9-5.7-16.2,0-13.1,9.1-23.6,21.6-23.6s10.7,2.9,12.6,5.4v-2.1c0-1.2.9-2.1,2-2.1h12.6c1.1,0,2.1.9,2.1,2.1M684.5,180.3c0,6.4,3.6,10.3,8.6,10.3s8.9-4.8,8.9-10.3-1.7-10.4-8.9-10.4-8.6,6.6-8.6,10.4"/>
  <path class="cls-1" d="M771.5,160.7c-.6,1.6-14,39.8-14.9,42.2-7.5,18.9-21.6,17.8-26.5,17.8s-2-.9-2-2.2v-10.9c0-1.3.9-2.3,2-2.3,0,0,9.3.3,10.4-5-4.4-10.6-15.8-38-16.3-39.3-.8-1.9-.3-3.1,1.7-3.1h11.8c2,0,2.4.6,3.1,2.2.3.7,7.5,21.4,7.5,21.4,0,0,5.9-20.9,6.2-21.4.8-1.6,1.1-2.2,3.1-2.2h12c1.9,0,2.5,1.1,1.9,2.8"/>
  <path class="cls-1" d="M771.7,64.1c0,34-29.2,61.5-63.7,61.5s-63.7-27.5-63.7-61.5,29-61.5,63.7-61.5,63.7,27.5,63.7,61.5M738.1,64.1c0-17.3-13.4-31.3-30.1-31.3s-30.2,13.9-30.2,31.3,13.6,31.4,30.2,31.4,30.1-14.1,30.1-31.4"/>
</svg>